# xmcd CD database file
#
# Track frame offsets:
#	150
#	20847
#	39040
#	58195
#	74920
#	92085
#	111565
#	132502
#	150765
#	168882
#	186992
#
# Disc length: 2737 seconds
#
# Revision: 6
# Processed by: cddbd v1.5.2PL0 Copyright (c) Steve Scherf et al.
# Submitted via: CDex 1.70beta2
#
DISCID=990aaf0b
DTITLE=Artful Dodger - It's All About the Stragglers
DYEAR=2001
DGENRE=Electronic
TTITLE0=Think About Me feat. Michelle Excoffery
TTITLE1=Re-Rewind feat. Craig David
TTITLE2=Outrageous feat. Lynn Eden
TTITLE3=Please Don't Turn Me On feat. Lifford
TTITLE4=TwentyFourSeven feat. NIcole
TTITLE5=Something feat. Lifford
TTITLE6=R U Ready feat. MC Alister
TTITLE7=I Can't Give It Up feat. Nadia
TTITLE8=Woman Trouble feat. Robbie Craig  Craig David
TTITLE9=What You Gonna Do? feat. Craig David
TTITLE10=We Should Get Together feat. Nadia
EXTD=YEAR: 2001
EXTT0=
EXTT1=
EXTT2=
EXTT3=
EXTT4=
EXTT5=
EXTT6=
EXTT7=
EXTT8=
EXTT9=
EXTT10=
PLAYORDER=
